<svg width="156" height="52" viewBox="0 0 156 52" fill="none" xmlns="http://www.w3.org/2000/svg">
<mask id="path-1-outside-1_7_2359" maskUnits="userSpaceOnUse" x="1" y="2" width="155" height="49" fill="black">
<rect fill="white" x="1" y="2" width="155" height="49"/>
<path d="M152.939 12.0376V12.0455C152.227 14.9048 150.179 16.9761 148.706 18.283L148.67 18.3146C148.441 18.5141 148.2 18.7005 147.95 18.873C148.058 19.0954 148.15 19.3257 148.223 19.5621L148.235 19.6057C148.516 20.5477 148.587 21.5399 148.445 22.5126C148.177 24.1385 147.737 25.7315 147.134 27.2649C146.868 28.0094 146.615 28.7144 146.421 29.4074C145.886 31.2608 145.276 33.4548 144.785 35.6964C144.436 37.3311 144.313 39.0062 144.421 40.6744C144.485 41.4114 144.353 42.1523 144.038 42.8215C143.723 43.4908 143.236 44.0645 142.627 44.4842C141.444 45.3971 140.118 46.1077 138.702 46.5872C136.37 47.2961 134.742 46.6782 133.788 46.0327C133.631 45.9272 133.482 45.8121 133.34 45.6882C132.161 46.4261 130.843 46.9116 129.467 47.1139C128.917 47.1958 128.363 47.2381 127.807 47.2406C126.728 47.2713 125.655 47.0734 124.658 46.6597C123.66 46.2461 122.762 45.6262 122.021 44.8407C121.826 44.6357 121.643 44.4202 121.471 44.1951C120.954 44.5678 120.41 44.9014 119.843 45.1931C118.246 46.0392 116.421 46.3554 114.632 46.0961C113.121 45.9297 111.692 45.3285 110.517 44.3654C109.168 43.169 108.285 41.5353 108.022 39.7517C107.938 39.308 107.881 38.8597 107.852 38.4092C107.056 39.5458 106.196 40.6111 105.368 41.613C103.833 43.5556 101.885 45.1328 99.6656 46.2307C97.3618 47.3556 94.7214 47.5816 92.2599 46.8644C90.9024 46.529 89.607 45.9796 88.4224 45.2367C87.7934 44.8275 87.2266 44.33 86.7392 43.7595C86.2561 44.2585 85.7729 44.7179 85.3096 45.1615C85.0284 45.4308 84.7433 45.7001 84.466 45.9733C84.0332 46.4013 83.5189 46.7381 82.9537 46.964C82.3884 47.1898 81.7836 47.3 81.175 47.2881C80.8513 47.2877 80.5282 47.2612 80.2087 47.2089C78.8006 47.0003 77.4263 46.6061 76.1217 46.0367L76.0821 46.0169C74.762 45.4295 73.6339 44.4826 72.8267 43.2843C71.6038 44.2839 70.2567 45.1212 68.8189 45.7753C67.3908 46.4658 65.854 46.904 64.2765 47.0703C62.8895 47.2252 61.4932 47.2795 60.0984 47.2327C57.7612 47.1472 55.4919 46.4241 53.5362 45.1417C51.4918 43.7499 50.0324 41.6532 49.4373 39.2527C49.4254 39.2012 49.4095 39.1497 49.3976 39.0983C48.7253 39.4102 48.018 39.6402 47.2908 39.7834C45.3974 40.2002 43.424 40.0613 41.6078 39.3834C40.6528 39.0212 39.8055 38.4224 39.1453 37.6431C38.4852 36.8638 38.0338 35.9296 37.8336 34.9281C36.3528 37.045 35.0037 39.2511 33.7941 41.5338C33.6674 41.7675 33.5406 42.0526 33.402 42.3497C33.1303 42.9727 32.8181 43.5772 32.4674 44.1595C31.869 45.1553 31.0178 45.975 30.0002 46.5356C28.9827 47.0962 27.835 47.3777 26.6735 47.3515H26.6537C25.4171 47.3873 24.1906 47.1194 23.0815 46.5713C22.9548 46.504 22.832 46.4327 22.7132 46.3575C22.5429 46.4446 22.3726 46.5278 22.1944 46.6109C20.6027 47.4134 18.8833 47.932 17.1133 48.1436L16.8282 48.1752C16.0956 48.2465 15.2916 48.3257 14.4441 48.3257C14.2025 48.3257 13.957 48.3178 13.7115 48.3059C11.2732 48.2026 8.93145 47.3244 7.02649 45.7991C5.10217 44.2242 3.78599 42.0287 3.30381 39.5893C2.95972 37.94 2.90745 36.243 3.14936 34.5756C3.50456 32.1465 4.29189 29.8006 5.47405 27.649C6.37434 25.9297 7.44787 24.3068 8.67793 22.8056C10.0183 21.1724 11.6058 19.7586 13.3828 18.6156C14.822 17.6773 16.4311 17.0301 18.1193 16.7107C20.4202 16.283 22.63 16.8335 24.8914 18.3978C26.0622 19.1989 27.069 20.2165 27.8576 21.3957C29.4021 19.2374 31.3348 17.9899 33.604 17.6968C34.7495 17.5099 35.9248 17.6752 36.9743 18.1709C38.0238 18.6667 38.8979 19.4695 39.4811 20.473C40.1334 20.0251 40.8223 19.633 41.5404 19.3008C43.0483 18.5572 44.7153 18.1942 46.3957 18.2434C48.9897 18.3582 50.962 19.2176 52.4193 20.873C52.9989 21.5333 53.4394 22.3038 53.7144 23.1383C54.2974 22.4314 54.9357 21.7719 55.6232 21.1661C57.4542 19.4689 59.7326 18.3311 62.1894 17.8869C63.0903 17.7577 64.0028 17.7285 64.9101 17.7998C65.1002 17.8077 65.2943 17.8156 65.4844 17.8196C66.8577 17.8721 68.2067 18.1979 69.4526 18.778C71.0342 19.4578 72.3782 20.5922 73.3139 22.0373C73.5119 21.7086 73.7257 21.3839 73.9515 21.071C75.298 19.2057 76.985 18.1047 78.9652 17.7958C79.8426 17.6305 80.7448 17.6482 81.615 17.8479C82.4853 18.0475 83.3049 18.4249 84.0225 18.9562C84.8695 19.6129 85.5078 20.5012 85.8599 21.5135C86.2121 22.5257 86.2631 23.6184 86.0066 24.659C85.9313 25.0155 85.8521 25.3758 85.7729 25.7323C86.0937 25.0471 86.4224 24.3541 86.767 23.669C87.8046 21.5779 89.1748 20.1483 90.953 19.3047C92.0387 18.7639 93.2513 18.529 94.4604 18.6252C95.6696 18.7215 96.8297 19.1454 97.8162 19.8512C98.7112 20.4611 99.8082 21.6532 99.9587 23.8709C100.008 25.2096 99.8023 26.5455 99.3528 27.8075C99.2656 28.0926 99.1785 28.3817 99.0874 28.6708L99.2538 28.2906C99.5904 27.5223 99.931 26.754 100.276 25.9936C101.329 23.6571 102.41 21.269 105.297 19.4829C105.936 19.0698 106.618 18.7297 107.333 18.4691C109.57 17.7087 114.188 17.8949 115.82 20.8571C116.689 20.0629 117.671 19.4023 118.734 18.8968C120.183 18.1782 121.779 17.8054 123.396 17.8077L123.546 17.8117C124.781 17.7777 126.014 17.9339 127.202 18.275C127.965 18.5096 128.678 18.8843 129.304 19.38C131.079 18.7503 133.34 18.7899 135.007 20.1007C135.336 20.3638 135.629 20.6687 135.879 21.0076C136.385 20.2102 136.96 19.4588 137.597 18.7622C138.312 17.9674 139.174 17.3191 140.136 16.8533C139.777 15.9995 139.51 15.1101 139.34 14.1999C139.156 13.3319 139.05 12.4492 139.023 11.5623V11.4911C138.979 9.8267 139.475 8.19285 140.437 6.83375C141.03 5.98481 141.814 5.28702 142.726 4.79657C143.638 4.30612 144.653 4.03672 145.688 4.01007C147.156 3.93774 148.617 4.25615 149.922 4.93282C151.15 5.60513 152.117 6.67205 152.664 7.96121C153.212 9.25038 153.309 10.6865 152.939 12.0376Z"/>
</mask>
<path d="M152.939 12.0376V12.0455C152.227 14.9048 150.179 16.9761 148.706 18.283L148.67 18.3146C148.441 18.5141 148.2 18.7005 147.95 18.873C148.058 19.0954 148.15 19.3257 148.223 19.5621L148.235 19.6057C148.516 20.5477 148.587 21.5399 148.445 22.5126C148.177 24.1385 147.737 25.7315 147.134 27.2649C146.868 28.0094 146.615 28.7144 146.421 29.4074C145.886 31.2608 145.276 33.4548 144.785 35.6964C144.436 37.3311 144.313 39.0062 144.421 40.6744C144.485 41.4114 144.353 42.1523 144.038 42.8215C143.723 43.4908 143.236 44.0645 142.627 44.4842C141.444 45.3971 140.118 46.1077 138.702 46.5872C136.37 47.2961 134.742 46.6782 133.788 46.0327C133.631 45.9272 133.482 45.8121 133.34 45.6882C132.161 46.4261 130.843 46.9116 129.467 47.1139C128.917 47.1958 128.363 47.2381 127.807 47.2406C126.728 47.2713 125.655 47.0734 124.658 46.6597C123.66 46.2461 122.762 45.6262 122.021 44.8407C121.826 44.6357 121.643 44.4202 121.471 44.1951C120.954 44.5678 120.41 44.9014 119.843 45.1931C118.246 46.0392 116.421 46.3554 114.632 46.0961C113.121 45.9297 111.692 45.3285 110.517 44.3654C109.168 43.169 108.285 41.5353 108.022 39.7517C107.938 39.308 107.881 38.8597 107.852 38.4092C107.056 39.5458 106.196 40.6111 105.368 41.613C103.833 43.5556 101.885 45.1328 99.6656 46.2307C97.3618 47.3556 94.7214 47.5816 92.2599 46.8644C90.9024 46.529 89.607 45.9796 88.4224 45.2367C87.7934 44.8275 87.2266 44.33 86.7392 43.7595C86.2561 44.2585 85.7729 44.7179 85.3096 45.1615C85.0284 45.4308 84.7433 45.7001 84.466 45.9733C84.0332 46.4013 83.5189 46.7381 82.9537 46.964C82.3884 47.1898 81.7836 47.3 81.175 47.2881C80.8513 47.2877 80.5282 47.2612 80.2087 47.2089C78.8006 47.0003 77.4263 46.6061 76.1217 46.0367L76.0821 46.0169C74.762 45.4295 73.6339 44.4826 72.8267 43.2843C71.6038 44.2839 70.2567 45.1212 68.8189 45.7753C67.3908 46.4658 65.854 46.904 64.2765 47.0703C62.8895 47.2252 61.4932 47.2795 60.0984 47.2327C57.7612 47.1472 55.4919 46.4241 53.5362 45.1417C51.4918 43.7499 50.0324 41.6532 49.4373 39.2527C49.4254 39.2012 49.4095 39.1497 49.3976 39.0983C48.7253 39.4102 48.018 39.6402 47.2908 39.7834C45.3974 40.2002 43.424 40.0613 41.6078 39.3834C40.6528 39.0212 39.8055 38.4224 39.1453 37.6431C38.4852 36.8638 38.0338 35.9296 37.8336 34.9281C36.3528 37.045 35.0037 39.2511 33.7941 41.5338C33.6674 41.7675 33.5406 42.0526 33.402 42.3497C33.1303 42.9727 32.8181 43.5772 32.4674 44.1595C31.869 45.1553 31.0178 45.975 30.0002 46.5356C28.9827 47.0962 27.835 47.3777 26.6735 47.3515H26.6537C25.4171 47.3873 24.1906 47.1194 23.0815 46.5713C22.9548 46.504 22.832 46.4327 22.7132 46.3575C22.5429 46.4446 22.3726 46.5278 22.1944 46.6109C20.6027 47.4134 18.8833 47.932 17.1133 48.1436L16.8282 48.1752C16.0956 48.2465 15.2916 48.3257 14.4441 48.3257C14.2025 48.3257 13.957 48.3178 13.7115 48.3059C11.2732 48.2026 8.93145 47.3244 7.02649 45.7991C5.10217 44.2242 3.78599 42.0287 3.30381 39.5893C2.95972 37.94 2.90745 36.243 3.14936 34.5756C3.50456 32.1465 4.29189 29.8006 5.47405 27.649C6.37434 25.9297 7.44787 24.3068 8.67793 22.8056C10.0183 21.1724 11.6058 19.7586 13.3828 18.6156C14.822 17.6773 16.4311 17.0301 18.1193 16.7107C20.4202 16.283 22.63 16.8335 24.8914 18.3978C26.0622 19.1989 27.069 20.2165 27.8576 21.3957C29.4021 19.2374 31.3348 17.9899 33.604 17.6968C34.7495 17.5099 35.9248 17.6752 36.9743 18.1709C38.0238 18.6667 38.8979 19.4695 39.4811 20.473C40.1334 20.0251 40.8223 19.633 41.5404 19.3008C43.0483 18.5572 44.7153 18.1942 46.3957 18.2434C48.9897 18.3582 50.962 19.2176 52.4193 20.873C52.9989 21.5333 53.4394 22.3038 53.7144 23.1383C54.2974 22.4314 54.9357 21.7719 55.6232 21.1661C57.4542 19.4689 59.7326 18.3311 62.1894 17.8869C63.0903 17.7577 64.0028 17.7285 64.9101 17.7998C65.1002 17.8077 65.2943 17.8156 65.4844 17.8196C66.8577 17.8721 68.2067 18.1979 69.4526 18.778C71.0342 19.4578 72.3782 20.5922 73.3139 22.0373C73.5119 21.7086 73.7257 21.3839 73.9515 21.071C75.298 19.2057 76.985 18.1047 78.9652 17.7958C79.8426 17.6305 80.7448 17.6482 81.615 17.8479C82.4853 18.0475 83.3049 18.4249 84.0225 18.9562C84.8695 19.6129 85.5078 20.5012 85.8599 21.5135C86.2121 22.5257 86.2631 23.6184 86.0066 24.659C85.9313 25.0155 85.8521 25.3758 85.7729 25.7323C86.0937 25.0471 86.4224 24.3541 86.767 23.669C87.8046 21.5779 89.1748 20.1483 90.953 19.3047C92.0387 18.7639 93.2513 18.529 94.4604 18.6252C95.6696 18.7215 96.8297 19.1454 97.8162 19.8512C98.7112 20.4611 99.8082 21.6532 99.9587 23.8709C100.008 25.2096 99.8023 26.5455 99.3528 27.8075C99.2656 28.0926 99.1785 28.3817 99.0874 28.6708L99.2538 28.2906C99.5904 27.5223 99.931 26.754 100.276 25.9936C101.329 23.6571 102.41 21.269 105.297 19.4829C105.936 19.0698 106.618 18.7297 107.333 18.4691C109.57 17.7087 114.188 17.8949 115.82 20.8571C116.689 20.0629 117.671 19.4023 118.734 18.8968C120.183 18.1782 121.779 17.8054 123.396 17.8077L123.546 17.8117C124.781 17.7777 126.014 17.9339 127.202 18.275C127.965 18.5096 128.678 18.8843 129.304 19.38C131.079 18.7503 133.34 18.7899 135.007 20.1007C135.336 20.3638 135.629 20.6687 135.879 21.0076C136.385 20.2102 136.96 19.4588 137.597 18.7622C138.312 17.9674 139.174 17.3191 140.136 16.8533C139.777 15.9995 139.51 15.1101 139.34 14.1999C139.156 13.3319 139.05 12.4492 139.023 11.5623V11.4911C138.979 9.8267 139.475 8.19285 140.437 6.83375C141.03 5.98481 141.814 5.28702 142.726 4.79657C143.638 4.30612 144.653 4.03672 145.688 4.01007C147.156 3.93774 148.617 4.25615 149.922 4.93282C151.15 5.60513 152.117 6.67205 152.664 7.96121C153.212 9.25038 153.309 10.6865 152.939 12.0376Z" fill="#262626"/>
<path d="M152.939 12.0376V12.0455C152.227 14.9048 150.179 16.9761 148.706 18.283L148.67 18.3146C148.441 18.5141 148.2 18.7005 147.95 18.873C148.058 19.0954 148.15 19.3257 148.223 19.5621L148.235 19.6057C148.516 20.5477 148.587 21.5399 148.445 22.5126C148.177 24.1385 147.737 25.7315 147.134 27.2649C146.868 28.0094 146.615 28.7144 146.421 29.4074C145.886 31.2608 145.276 33.4548 144.785 35.6964C144.436 37.3311 144.313 39.0062 144.421 40.6744C144.485 41.4114 144.353 42.1523 144.038 42.8215C143.723 43.4908 143.236 44.0645 142.627 44.4842C141.444 45.3971 140.118 46.1077 138.702 46.5872C136.37 47.2961 134.742 46.6782 133.788 46.0327C133.631 45.9272 133.482 45.8121 133.34 45.6882C132.161 46.4261 130.843 46.9116 129.467 47.1139C128.917 47.1958 128.363 47.2381 127.807 47.2406C126.728 47.2713 125.655 47.0734 124.658 46.6597C123.66 46.2461 122.762 45.6262 122.021 44.8407C121.826 44.6357 121.643 44.4202 121.471 44.1951C120.954 44.5678 120.41 44.9014 119.843 45.1931C118.246 46.0392 116.421 46.3554 114.632 46.0961C113.121 45.9297 111.692 45.3285 110.517 44.3654C109.168 43.169 108.285 41.5353 108.022 39.7517C107.938 39.308 107.881 38.8597 107.852 38.4092C107.056 39.5458 106.196 40.6111 105.368 41.613C103.833 43.5556 101.885 45.1328 99.6656 46.2307C97.3618 47.3556 94.7214 47.5816 92.2599 46.8644C90.9024 46.529 89.607 45.9796 88.4224 45.2367C87.7934 44.8275 87.2266 44.33 86.7392 43.7595C86.2561 44.2585 85.7729 44.7179 85.3096 45.1615C85.0284 45.4308 84.7433 45.7001 84.466 45.9733C84.0332 46.4013 83.5189 46.7381 82.9537 46.964C82.3884 47.1898 81.7836 47.3 81.175 47.2881C80.8513 47.2877 80.5282 47.2612 80.2087 47.2089C78.8006 47.0003 77.4263 46.6061 76.1217 46.0367L76.0821 46.0169C74.762 45.4295 73.6339 44.4826 72.8267 43.2843C71.6038 44.2839 70.2567 45.1212 68.8189 45.7753C67.3908 46.4658 65.854 46.904 64.2765 47.0703C62.8895 47.2252 61.4932 47.2795 60.0984 47.2327C57.7612 47.1472 55.4919 46.4241 53.5362 45.1417C51.4918 43.7499 50.0324 41.6532 49.4373 39.2527C49.4254 39.2012 49.4095 39.1497 49.3976 39.0983C48.7253 39.4102 48.018 39.6402 47.2908 39.7834C45.3974 40.2002 43.424 40.0613 41.6078 39.3834C40.6528 39.0212 39.8055 38.4224 39.1453 37.6431C38.4852 36.8638 38.0338 35.9296 37.8336 34.9281C36.3528 37.045 35.0037 39.2511 33.7941 41.5338C33.6674 41.7675 33.5406 42.0526 33.402 42.3497C33.1303 42.9727 32.8181 43.5772 32.4674 44.1595C31.869 45.1553 31.0178 45.975 30.0002 46.5356C28.9827 47.0962 27.835 47.3777 26.6735 47.3515H26.6537C25.4171 47.3873 24.1906 47.1194 23.0815 46.5713C22.9548 46.504 22.832 46.4327 22.7132 46.3575C22.5429 46.4446 22.3726 46.5278 22.1944 46.6109C20.6027 47.4134 18.8833 47.932 17.1133 48.1436L16.8282 48.1752C16.0956 48.2465 15.2916 48.3257 14.4441 48.3257C14.2025 48.3257 13.957 48.3178 13.7115 48.3059C11.2732 48.2026 8.93145 47.3244 7.02649 45.7991C5.10217 44.2242 3.78599 42.0287 3.30381 39.5893C2.95972 37.94 2.90745 36.243 3.14936 34.5756C3.50456 32.1465 4.29189 29.8006 5.47405 27.649C6.37434 25.9297 7.44787 24.3068 8.67793 22.8056C10.0183 21.1724 11.6058 19.7586 13.3828 18.6156C14.822 17.6773 16.4311 17.0301 18.1193 16.7107C20.4202 16.283 22.63 16.8335 24.8914 18.3978C26.0622 19.1989 27.069 20.2165 27.8576 21.3957C29.4021 19.2374 31.3348 17.9899 33.604 17.6968C34.7495 17.5099 35.9248 17.6752 36.9743 18.1709C38.0238 18.6667 38.8979 19.4695 39.4811 20.473C40.1334 20.0251 40.8223 19.633 41.5404 19.3008C43.0483 18.5572 44.7153 18.1942 46.3957 18.2434C48.9897 18.3582 50.962 19.2176 52.4193 20.873C52.9989 21.5333 53.4394 22.3038 53.7144 23.1383C54.2974 22.4314 54.9357 21.7719 55.6232 21.1661C57.4542 19.4689 59.7326 18.3311 62.1894 17.8869C63.0903 17.7577 64.0028 17.7285 64.9101 17.7998C65.1002 17.8077 65.2943 17.8156 65.4844 17.8196C66.8577 17.8721 68.2067 18.1979 69.4526 18.778C71.0342 19.4578 72.3782 20.5922 73.3139 22.0373C73.5119 21.7086 73.7257 21.3839 73.9515 21.071C75.298 19.2057 76.985 18.1047 78.9652 17.7958C79.8426 17.6305 80.7448 17.6482 81.615 17.8479C82.4853 18.0475 83.3049 18.4249 84.0225 18.9562C84.8695 19.6129 85.5078 20.5012 85.8599 21.5135C86.2121 22.5257 86.2631 23.6184 86.0066 24.659C85.9313 25.0155 85.8521 25.3758 85.7729 25.7323C86.0937 25.0471 86.4224 24.3541 86.767 23.669C87.8046 21.5779 89.1748 20.1483 90.953 19.3047C92.0387 18.7639 93.2513 18.529 94.4604 18.6252C95.6696 18.7215 96.8297 19.1454 97.8162 19.8512C98.7112 20.4611 99.8082 21.6532 99.9587 23.8709C100.008 25.2096 99.8023 26.5455 99.3528 27.8075C99.2656 28.0926 99.1785 28.3817 99.0874 28.6708L99.2538 28.2906C99.5904 27.5223 99.931 26.754 100.276 25.9936C101.329 23.6571 102.41 21.269 105.297 19.4829C105.936 19.0698 106.618 18.7297 107.333 18.4691C109.57 17.7087 114.188 17.8949 115.82 20.8571C116.689 20.0629 117.671 19.4023 118.734 18.8968C120.183 18.1782 121.779 17.8054 123.396 17.8077L123.546 17.8117C124.781 17.7777 126.014 17.9339 127.202 18.275C127.965 18.5096 128.678 18.8843 129.304 19.38C131.079 18.7503 133.34 18.7899 135.007 20.1007C135.336 20.3638 135.629 20.6687 135.879 21.0076C136.385 20.2102 136.96 19.4588 137.597 18.7622C138.312 17.9674 139.174 17.3191 140.136 16.8533C139.777 15.9995 139.51 15.1101 139.34 14.1999C139.156 13.3319 139.05 12.4492 139.023 11.5623V11.4911C138.979 9.8267 139.475 8.19285 140.437 6.83375C141.03 5.98481 141.814 5.28702 142.726 4.79657C143.638 4.30612 144.653 4.03672 145.688 4.01007C147.156 3.93774 148.617 4.25615 149.922 4.93282C151.15 5.60513 152.117 6.67205 152.664 7.96121C153.212 9.25038 153.309 10.6865 152.939 12.0376Z" stroke="white" stroke-width="4" mask="url(#path-1-outside-1_7_2359)"/>
<path d="M150.051 11.3255C149.576 13.2304 148.158 14.7947 146.728 16.062C146.22 16.4986 145.649 16.8552 145.033 17.1194C144.289 17.4481 143.79 17.2382 143.342 16.5689C142.788 15.662 142.415 14.6559 142.245 13.6066C142.095 12.9071 142.008 12.1952 141.988 11.48C141.948 10.4442 142.247 9.42361 142.839 8.5731C143.169 8.09099 143.609 7.69485 144.123 7.41786C144.637 7.14086 145.21 6.99108 145.794 6.98106C146.743 6.92775 147.689 7.12872 148.534 7.56323C149.893 8.26855 150.408 9.88792 150.051 11.3255Z" fill="#FF5A50"/>
<path d="M145.387 20.4542C145.074 19.4602 144.159 19.2819 143.276 19.1988C141.827 19.0681 140.69 19.7968 139.775 20.7829C139.022 21.6261 138.364 22.5506 137.815 23.5393C136.666 25.5253 135.968 27.7186 135.299 29.8963C134.864 31.3125 134.482 32.5584 133.94 34.396C133.619 35.4831 133.257 37.1599 132.25 38.0066C131.999 38.2387 131.67 38.3699 131.328 38.3749C130.908 38.3155 130.757 37.8719 130.738 37.4601C130.714 37.0046 130.714 36.5492 130.734 36.0938C130.849 34.6978 131.141 33.3219 131.601 31.9988C132.274 29.8207 132.999 27.6584 133.652 25.4723C133.931 24.7177 133.944 23.8904 133.688 23.1278C133.577 22.8586 133.4 22.6216 133.173 22.4387C132.266 21.7258 130.623 21.8446 129.629 22.506C129.3 22.7318 128.975 22.9654 128.631 23.203C128.555 23.0803 128.496 22.9931 128.441 22.8981C128.22 22.4719 127.917 22.0937 127.55 21.7857C127.182 21.4777 126.756 21.246 126.298 21.1041C125.339 20.8501 124.347 20.7407 123.356 20.7793C122.19 20.7855 121.042 21.0606 120.001 21.5833C118.365 22.4113 116.971 23.6505 115.958 25.1792C114.835 26.7115 113.836 28.3311 112.972 30.0226C112.073 31.7242 111.418 33.5441 111.027 35.4284C110.895 36.1184 110.815 36.8174 110.79 37.5195C110.783 38.0883 110.835 38.6562 110.944 39.2145C111.086 40.3247 111.616 41.3488 112.441 42.1055C113.193 42.7027 114.103 43.0687 115.059 43.1589C116.228 43.3303 117.422 43.1221 118.465 42.5649C119.596 41.9698 120.613 41.1802 121.47 40.2323C121.831 39.8442 122.211 39.4719 122.623 39.0442C122.67 39.2937 122.706 39.4521 122.73 39.6105C122.878 40.795 123.382 41.9067 124.175 42.7985C125.514 44.2084 127.229 44.4421 129.035 44.1767C130.028 44.0291 130.979 43.6729 131.825 43.1316C132.267 42.8504 133.563 41.3309 134.069 41.7253C134.69 42.2093 134.753 43.1039 135.448 43.572C135.808 43.777 136.21 43.8992 136.623 43.9297C137.037 43.9603 137.452 43.8984 137.839 43.7486C138.944 43.3549 139.979 42.7867 140.904 42.0655C141.105 41.9337 141.264 41.7467 141.362 41.5268C141.46 41.307 141.492 41.0636 141.454 40.8259C141.337 38.8934 141.48 36.9537 141.882 35.0597C142.361 32.8855 142.948 30.7351 143.561 28.5965C144.179 26.4184 145.197 24.3551 145.506 22.0858C145.585 21.5398 145.545 20.9829 145.387 20.4542ZM125.407 27.298C124.778 29.9526 123.549 32.4277 121.815 34.5334C121.212 35.3357 120.485 36.0363 119.661 36.6086C119.173 36.9334 118.698 37.0522 118.429 36.4502C118.355 36.2844 118.308 36.108 118.29 35.9274C118.183 34.8938 118.694 33.8166 119.047 32.8741C119.435 31.8127 119.869 30.7738 120.35 29.7573C121.043 28.288 121.855 26.8782 123.122 25.8208C123.536 25.508 123.998 25.2622 124.488 25.0921C124.825 24.9574 125.221 25.2584 125.375 25.6307C125.56 26.1695 125.571 26.7525 125.407 27.298Z" fill="#FF5A50"/>
<path d="M51.1177 32.7995C50.4127 34.9895 49.0068 36.4113 46.7019 36.8746C45.3611 37.1797 43.9606 37.0889 42.6704 36.6132C42.0929 36.3924 41.5941 36.005 41.2373 35.5001C40.8805 34.9952 40.6818 34.3957 40.6665 33.7777C40.5714 32.1262 41.2328 30.7005 42.0011 29.3065C42.3219 28.7283 42.6545 28.1541 42.9199 27.5481C43.0339 27.2451 43.0773 26.92 43.0466 26.5977C43.0308 26.4904 42.9907 26.3882 42.9294 26.2987C42.8681 26.2093 42.7872 26.135 42.6929 26.0816C42.5986 26.0281 42.4933 25.9969 42.3851 25.9902C42.2769 25.9836 42.1686 26.0017 42.0684 26.0432C41.4972 26.3085 40.9644 26.6495 40.4843 27.0571C38.5556 28.8273 37.0072 30.9183 35.5141 33.0609C33.9176 35.3277 32.4653 37.6927 31.1657 40.1419C30.742 40.9498 30.4251 41.821 29.946 42.5893C29.6122 43.1583 29.13 43.6258 28.551 43.9418C27.972 44.2578 27.318 44.4104 26.6589 44.3833C25.8998 44.417 25.1439 44.2647 24.457 43.9398C23.9263 43.6532 23.5201 43.1808 23.3164 42.6131C22.5283 43.0527 21.7481 43.5398 20.9244 43.9279C19.6396 44.5817 18.2516 45.0091 16.8215 45.1912C15.8488 45.3183 14.8676 45.3687 13.887 45.3417C12.0691 45.2761 10.3201 44.6293 8.897 43.4962C7.49615 42.3466 6.54312 40.7419 6.204 38.9617C5.93347 37.6465 5.89593 36.294 6.09312 34.9658C6.40093 32.8856 7.07967 30.8776 8.09702 29.0372C8.90498 27.4949 9.86837 26.0392 10.9722 24.6928C12.117 23.2983 13.4718 22.0905 14.9879 21.1127C16.1078 20.3845 17.3588 19.8814 18.671 19.6315C20.37 19.3147 21.8353 19.9008 23.1976 20.8434C24.1456 21.4861 24.9461 22.3231 25.5461 23.2987C26.0962 24.2937 26.2423 25.4623 25.954 26.562C25.6598 27.7628 25.2279 28.9256 24.6669 30.0273C24.152 31.1678 23.6412 32.3084 23.1144 33.445C23.0274 33.6921 22.846 33.8945 22.6099 34.0081C22.3739 34.1217 22.1024 34.1371 21.8551 34.0509C21.1209 33.8185 20.4605 33.3978 19.9394 32.8309C19.4183 32.2639 19.0547 31.5704 18.8849 30.8193C18.7614 29.7432 18.9368 28.6539 19.3918 27.6709C19.863 26.4551 20.4056 25.267 20.9284 24.075C20.9767 23.995 21.0082 23.906 21.021 23.8135C21.0337 23.7209 21.0275 23.6268 21.0027 23.5367C20.9779 23.4467 20.9349 23.3626 20.8765 23.2897C20.8181 23.2168 20.7455 23.1565 20.663 23.1126C20.063 23.2521 19.5192 23.5696 19.1027 24.0235C18.3661 24.7522 17.669 25.5205 17.0037 26.3165C15.6641 27.9899 14.5214 29.8117 13.5979 31.746C13.0197 32.8583 12.6594 34.0707 12.5365 35.3182C12.4141 36.2767 12.4449 37.2485 12.6276 38.1974C12.7279 38.8005 13.0326 39.3508 13.4904 39.756C13.9483 40.1612 14.5315 40.3967 15.1424 40.423C17.4852 40.5537 19.8106 39.9516 21.7957 38.7003C22.5526 38.1818 23.2797 37.6212 23.9738 37.0212C24.1009 36.9012 24.1962 36.7515 24.2511 36.5855C24.952 34.7123 25.6094 32.8232 26.354 30.9698C26.9005 29.5956 27.55 28.261 28.1599 26.9145C28.734 25.5919 29.437 24.329 30.2588 23.1443C31.1855 21.8414 32.3538 20.8552 33.9815 20.6453C35.2923 20.4751 36.5002 20.9146 37.126 22.3958C37.6764 23.6987 37.3596 24.9502 36.9359 26.2016C36.825 26.5224 36.7181 26.8432 36.5794 27.2551C37.3438 26.4234 37.9933 25.6314 38.7259 24.9343C39.9056 23.738 41.2761 22.7463 42.7813 21.9998C43.8595 21.4596 45.0527 21.1892 46.2584 21.2117C47.7514 21.279 49.1454 21.6552 50.191 22.8393C50.646 23.3742 50.946 24.0234 51.0583 24.7165C51.3038 26.0036 50.8761 27.16 50.4009 28.3164C50.0484 29.1719 49.688 30.0273 49.4227 30.9104C49.2088 31.6272 49.589 32.1342 50.3494 32.3282C50.518 32.3719 50.6904 32.3998 50.8642 32.4114C51.1454 32.4233 51.185 32.5817 51.1177 32.7995Z" fill="white"/>
<path d="M113.271 22.3956C112.647 20.9964 109.565 20.8483 108.293 21.2819C107.79 21.4702 107.31 21.7148 106.862 22.011C104.735 23.3266 103.979 25.0161 102.981 27.2228C101.991 29.4009 101.08 31.6187 100.019 33.7612C99.3139 35.1392 98.5119 36.4653 97.6188 37.7294C97.1112 38.5517 96.2978 39.1386 95.3575 39.3611C94.7991 39.472 94.5694 39.2225 94.3714 38.7353C94.1891 38.2881 94.0782 37.815 94.0427 37.3334C93.9632 35.9502 94.1418 34.5642 94.5694 33.2464C95.1991 31.1355 95.8763 29.0405 96.5139 26.9337C96.8501 26.0186 97.0139 25.0491 96.9971 24.0743C97.0013 23.7342 96.9266 23.3976 96.7788 23.0912C96.6311 22.7847 96.4143 22.5167 96.1456 22.3081C95.5857 21.8988 94.9236 21.6522 94.2324 21.5956C93.5413 21.539 92.8479 21.6746 92.2289 21.9873C90.9141 22.613 90.0547 23.7298 89.425 24.9971C88.5339 26.7792 87.73 28.6049 86.8587 30.395C86.2607 31.6345 85.6152 32.8543 84.9895 34.078C84.1966 35.7607 83.243 37.3628 82.142 38.8621C81.9678 39.0839 81.6588 39.3928 81.4608 39.3571C81.2232 39.3215 81.0331 38.9611 80.8311 38.7353C80.7966 38.694 80.7722 38.6452 80.7599 38.5928C80.4577 37.5017 80.4049 36.3566 80.6054 35.2424C80.8074 33.983 81.0608 32.7276 81.3499 31.4841C81.9202 29.0009 82.5697 26.5337 83.1044 24.0387C83.2428 23.5483 83.2323 23.0279 83.0744 22.5435C82.9164 22.0591 82.6181 21.6325 82.2172 21.318C81.8178 21.0324 81.3633 20.8328 80.8828 20.7319C80.4022 20.631 79.9058 20.631 79.4252 20.7319C78.1065 20.9378 77.1362 21.7378 76.3639 22.8071C75.4182 24.1222 74.7474 25.6146 74.3917 27.1951C74.0868 28.502 73.8848 29.8326 73.667 31.1633C73.568 31.7771 73.564 32.4028 73.4888 33.0246C73.4673 33.1967 73.3941 33.3583 73.2789 33.488C72.7522 34.0384 72.2175 34.577 71.667 35.1038C70.6246 36.1088 69.43 36.9428 68.1273 37.575C67.2787 38.0296 66.3421 38.296 65.3812 38.3561C64.4204 38.4163 63.4579 38.2687 62.5592 37.9235C61.9778 37.704 61.4614 37.3409 61.0584 36.8679C60.6553 36.3949 60.3787 35.8275 60.2543 35.2186C61.0265 35.2186 61.7711 35.2265 62.5156 35.2186C64.2776 35.1992 66.0076 34.7463 67.5531 33.8998C69.0095 33.1582 70.1935 31.9742 70.9352 30.5177C71.7742 28.8926 71.9762 27.0128 71.5015 25.2466C71.29 24.411 70.8857 23.6366 70.3211 22.9853C69.7565 22.3341 69.0472 21.8241 68.2501 21.4962C67.3586 21.0743 66.3919 20.8346 65.4066 20.7913C64.4996 20.7133 63.5872 20.7225 62.6819 20.819C60.7755 21.1737 59.01 22.0654 57.593 23.3892C56.087 24.7445 54.8427 26.3647 53.9218 28.1693C52.8596 30.1717 52.2028 32.364 51.9891 34.6206C51.8628 35.9108 51.9688 37.2132 52.302 38.466C52.7121 40.1805 53.7437 41.682 55.197 42.6798C56.7077 43.6607 58.4579 44.2098 60.2582 44.2679C61.5131 44.3054 62.769 44.2538 64.0165 44.1134C65.2608 43.9716 66.4716 43.618 67.5966 43.0679C69.4499 42.2207 71.1205 41.0208 72.5153 39.5353C72.951 39.0799 73.3668 38.6007 73.7391 38.1849C74.0955 39.0522 74.4163 39.9512 74.8242 40.8066C75.3164 41.9184 76.2002 42.8106 77.3073 43.3134C78.3793 43.7811 79.5086 44.1047 80.6656 44.2758C80.9642 44.3535 81.2773 44.3562 81.5772 44.2837C81.8771 44.2111 82.1543 44.0656 82.3844 43.86C83.1487 43.1075 83.9447 42.3828 84.6893 41.6105C85.106 41.1493 85.4986 40.6668 85.8655 40.165C86.408 39.472 86.9427 38.767 87.509 38.0304C87.5724 38.3908 87.6159 38.6957 87.6832 38.9967C88.0357 40.5294 88.6892 41.86 90.0555 42.759C90.9831 43.3288 91.9948 43.7485 93.0534 44.0025C94.8237 44.5255 96.7257 44.3659 98.384 43.555C100.212 42.6404 101.814 41.3326 103.077 39.7254C104.09 38.532 105.035 37.2825 105.909 35.9829C107.235 33.9474 108.487 31.8524 109.699 29.7415C110.315 28.6675 110.915 27.584 111.51 26.4984C111.997 25.6121 113.299 24.0494 113.378 23.053C113.399 22.8284 113.362 22.6021 113.271 22.3956ZM60.7849 30.1534C61.193 29.0381 61.8084 28.0102 62.5988 27.1238C63.0745 26.5282 63.7326 26.1052 64.472 25.9198C64.7173 25.8796 64.9688 25.902 65.2031 25.9851C65.4373 26.0681 65.6468 26.2091 65.812 26.3948C65.9772 26.5806 66.0928 26.8051 66.1479 27.0475C66.203 27.2899 66.196 27.5423 66.1274 27.7812C65.5611 30.189 63.9651 31.5514 61.6443 32.1454C61.1376 32.2306 60.6254 32.2795 60.1117 32.292C60.3572 31.4999 60.5473 30.8187 60.7849 30.1534Z" fill="white"/>
</svg>
