<?xml version="1.0" standalone="no"?>
<!DOCTYPE svg PUBLIC "-//W3C//DTD SVG 20010904//EN"
 "http://www.w3.org/TR/2001/REC-SVG-20010904/DTD/svg10.dtd">
<svg version="1.0" xmlns="http://www.w3.org/2000/svg"
 width="48.000000pt" height="48.000000pt" viewBox="0 0 48.000000 48.000000"
 preserveAspectRatio="xMidYMid meet">

<g transform="translate(0.000000,48.000000) scale(0.100000,-0.100000)"
fill="#000000" stroke="none">
<path d="M252 469 c-103 -22 -213 -172 -214 -294 -1 -107 60 -168 168 -167
130 1 276 133 234 211 -13 25 -27 26 -52 4 -31 -27 -32 -6 -4 56 34 77 33 103
-6 146 -38 40 -78 55 -126 44z m103 -40 c44 -39 46 -82 9 -163 -27 -60 -42
-68 -74 -36 -24 24 -26 67 -5 117 22 51 19 60 -11 32 -72 -65 -125 -189 -105
-242 9 -23 16 -27 53 -27 54 0 122 33 154 76 34 44 54 44 54 1 0 -75 -125
-167 -225 -167 -121 0 -181 92 -145 222 17 58 86 153 137 187 63 42 110 42
158 0z"/>
</g>
</svg>
